<svg width="40" height="40" viewBox="0 0 40 40" fill="none" xmlns="http://www.w3.org/2000/svg">
<path d="M30 0H10C4.47715 0 0 4.47715 0 10V30C0 35.5228 4.47715 40 10 40H30C35.5228 40 40 35.5228 40 30V10C40 4.47715 35.5228 0 30 0Z" fill="url(#paint0_linear_348_30)"/>
<path d="M8.05664 18.5264L7.94434 17.7549C7.94434 17.5661 8.02897 17.4245 8.19824 17.3301C8.37077 17.2357 8.57422 17.1885 8.80859 17.1885C9.04622 17.1885 9.21387 17.2292 9.31152 17.3105C9.41243 17.3919 9.46289 17.4733 9.46289 17.5547V17.7158L9.42383 17.8672L9.36035 18.0088L9.30176 18.1602C9.24642 18.3424 9.21875 18.9251 9.21875 19.9082L9.20898 20.7188C9.20898 20.8099 9.20573 20.945 9.19922 21.124L9.18457 21.5342C9.1748 21.9443 9.16992 22.2389 9.16992 22.418C9.16992 22.5938 9.18132 22.7321 9.2041 22.833C9.23014 22.9307 9.27246 23.0511 9.33105 23.1943C9.3929 23.3376 9.42383 23.4417 9.42383 23.5068C9.42383 23.6826 9.36686 23.8014 9.25293 23.8633C9.14225 23.9251 8.96973 23.9561 8.73535 23.9561C8.50423 23.9561 8.31543 23.9023 8.16895 23.7949C8.02246 23.6842 7.94922 23.5768 7.94922 23.4727C7.94922 23.3685 7.96224 23.2497 7.98828 23.1162C8.01758 22.9795 8.04036 22.8493 8.05664 22.7256C8.07617 22.6019 8.08594 22.3057 8.08594 21.8369C8.08594 21.3682 7.99805 21.0768 7.82227 20.9629C7.69857 20.8815 7.40885 20.8408 6.95312 20.8408C6.05794 20.8408 5.53223 20.9287 5.37598 21.1045C5.25228 21.2445 5.19043 21.6546 5.19043 22.335C5.19043 22.5889 5.19694 22.7695 5.20996 22.877L5.23438 23.0332L5.26367 23.1748C5.2832 23.2855 5.29297 23.3913 5.29297 23.4922C5.29297 23.5898 5.22949 23.6826 5.10254 23.7705C4.97559 23.8584 4.78678 23.9023 4.53613 23.9023C4.06413 23.9023 3.82812 23.7575 3.82812 23.4678C3.82812 23.4613 3.88835 23.2594 4.00879 22.8623C4.07715 22.6344 4.11133 21.8613 4.11133 20.543L4.11621 20.3428C4.11947 20.1572 4.12272 20.0107 4.12598 19.9033C4.12923 19.7959 4.13086 19.5534 4.13086 19.1758C4.13086 18.7949 4.11784 18.5426 4.0918 18.4189C4.06901 18.2952 4.02181 18.1569 3.9502 18.0039C3.88184 17.8509 3.84766 17.7305 3.84766 17.6426C3.84766 17.3659 4.07389 17.2275 4.52637 17.2275C4.76074 17.2275 4.94629 17.2731 5.08301 17.3643C5.22298 17.4521 5.29297 17.5579 5.29297 17.6816C5.29297 17.7109 5.27669 17.8249 5.24414 18.0234C5.21159 18.222 5.19531 18.4678 5.19531 18.7607C5.19531 19.3695 5.27995 19.7373 5.44922 19.8643C5.62174 19.988 6.16374 20.0498 7.0752 20.0498C7.55371 20.0498 7.83691 19.9603 7.9248 19.7812C8.0127 19.599 8.05664 19.1807 8.05664 18.5264ZM11.4404 17.1396H11.6016C11.7415 17.1396 11.862 17.182 11.9629 17.2666C12.0638 17.3512 12.1143 17.4749 12.1143 17.6377V17.7598C12.1143 17.8932 12.0703 18.0137 11.9824 18.1211C11.8945 18.2253 11.7822 18.2773 11.6455 18.2773L11.5479 18.292H11.3867C11.3477 18.2822 11.2988 18.2773 11.2402 18.2773C11.1816 18.2773 11.1117 18.2383 11.0303 18.1602C10.9521 18.0788 10.9131 17.9893 10.9131 17.8916C10.9066 17.8656 10.9033 17.846 10.9033 17.833L10.8936 17.7354V17.7109L10.9131 17.5547C10.9131 17.4798 10.9554 17.3919 11.04 17.291C11.1247 17.1901 11.2581 17.1396 11.4404 17.1396ZM11.5186 23.9854H11.2695C11.1328 23.9854 11.0156 23.9463 10.918 23.8682C10.8203 23.79 10.7715 23.7054 10.7715 23.6143C10.7715 23.5199 10.7992 23.3848 10.8545 23.209C10.9098 23.0332 10.9375 22.877 10.9375 22.7402L10.9473 22.6182L10.957 22.3643V22.1641L10.9619 22.0322V20.4453C10.9489 20.2695 10.9212 20.1214 10.8789 20.001L10.835 19.9082C10.7666 19.7389 10.7324 19.6462 10.7324 19.6299V19.5322C10.7324 19.3434 10.9277 19.249 11.3184 19.249H11.4941C11.7318 19.249 11.8766 19.3418 11.9287 19.5273C11.9417 19.5762 11.9482 19.861 11.9482 20.3818V21.4902L11.958 21.8125L11.9775 22.1885C11.9775 22.5758 12.0573 22.9046 12.2168 23.1748C12.2819 23.2855 12.3145 23.4092 12.3145 23.5459C12.3145 23.6794 12.238 23.7868 12.085 23.8682C11.932 23.9463 11.7432 23.9854 11.5186 23.9854ZM14.2627 24.5713H14.1553C13.8656 24.5713 13.6117 24.5143 13.3936 24.4004C13.1755 24.2897 13.0664 24.1514 13.0664 23.9854V23.8926C13.0664 23.7917 13.1104 23.6973 13.1982 23.6094C13.2894 23.5182 13.4245 23.4727 13.6035 23.4727L14.0674 23.5068C14.2594 23.5068 14.4336 23.4222 14.5898 23.2529C14.7461 23.0804 14.8698 22.8656 14.9609 22.6084C15.1302 22.1266 15.2148 21.3682 15.2148 20.333L15.21 20.2158C15.2067 20.1377 15.2051 19.9375 15.2051 19.6152C15.2051 19.2897 15.1742 19.0016 15.1123 18.751C15.0505 18.4971 14.9642 18.2725 14.8535 18.0771C14.7428 17.8818 14.6875 17.7256 14.6875 17.6084C14.6875 17.4912 14.7738 17.3805 14.9463 17.2764C15.1221 17.1722 15.3727 17.1201 15.6982 17.1201H15.8057C15.9977 17.1201 16.1654 17.1722 16.3086 17.2764C16.4551 17.3773 16.5283 17.5124 16.5283 17.6816C16.5283 17.7435 16.5137 17.8444 16.4844 17.9844C16.4583 18.1243 16.4274 18.3815 16.3916 18.7559C16.359 19.127 16.3428 19.4769 16.3428 19.8057L16.333 20.04C16.3298 20.1182 16.3281 20.1963 16.3281 20.2744L16.3184 20.5088L16.3037 21.2217C16.3037 22.3643 16.1458 23.1829 15.8301 23.6777C15.6543 23.9512 15.4248 24.1676 15.1416 24.3271C14.8584 24.4899 14.5654 24.5713 14.2627 24.5713ZM20.0293 24.0537C19.7298 24.0537 19.3994 24.0163 19.0381 23.9414C18.6768 23.8633 18.4229 23.7819 18.2764 23.6973C18.1299 23.6094 18.0143 23.4873 17.9297 23.3311C17.8483 23.1715 17.8076 23.0202 17.8076 22.877C17.8076 22.7305 17.8418 22.6182 17.9102 22.54C17.9785 22.4587 18.0534 22.418 18.1348 22.418C18.2161 22.418 18.3675 22.5107 18.5889 22.6963C18.8135 22.8818 19.0365 23.0218 19.2578 23.1162C19.4824 23.2106 19.7607 23.2578 20.0928 23.2578C20.4248 23.2578 20.695 23.1699 20.9033 22.9941C21.1117 22.8184 21.2158 22.5693 21.2158 22.2471C21.2158 21.9248 21.027 21.6335 20.6494 21.373C20.5452 21.3014 20.2002 21.1273 19.6143 20.8506C19.0283 20.5706 18.641 20.333 18.4521 20.1377C18.2633 19.9391 18.1266 19.7389 18.042 19.5371C17.9606 19.332 17.9199 19.0879 17.9199 18.8047C17.9199 18.2904 18.1364 17.8639 18.5693 17.5254C18.9567 17.2161 19.5378 17.0615 20.3125 17.0615C20.7878 17.0615 21.1865 17.1315 21.5088 17.2715C21.6553 17.3366 21.7773 17.4473 21.875 17.6035C21.9759 17.7565 22.0264 17.8997 22.0264 18.0332C22.0264 18.3457 21.9238 18.502 21.7188 18.502C21.6602 18.502 21.46 18.3896 21.1182 18.165C20.7764 17.9404 20.4329 17.8281 20.0879 17.8281C19.7461 17.8281 19.4694 17.9095 19.2578 18.0723C19.0495 18.2318 18.9453 18.4531 18.9453 18.7363C18.9453 19.0195 19.0837 19.2718 19.3604 19.4932C19.5101 19.6136 19.8893 19.8122 20.498 20.0889C21.1068 20.3623 21.5218 20.6113 21.7432 20.8359C21.9678 21.0573 22.1159 21.2705 22.1875 21.4756C22.2624 21.6774 22.2998 21.9118 22.2998 22.1787C22.2998 22.4456 22.2428 22.6963 22.1289 22.9307C21.901 23.4092 21.4958 23.7396 20.9131 23.9219C20.6364 24.0098 20.3532 24.0537 20.0635 24.0537C20.0505 24.0537 20.0391 24.0537 20.0293 24.0537ZM24.4043 20.5039V20.7529C24.4043 21.4821 24.5426 22.0778 24.8193 22.54C24.9821 22.8135 25.1839 23.0234 25.4248 23.1699C25.6689 23.3132 25.8936 23.3848 26.0986 23.3848H26.3281C26.5788 23.3848 26.8115 23.3164 27.0264 23.1797C27.4333 22.9225 27.7148 22.4977 27.8711 21.9053C27.9785 21.5016 28.0322 21.0833 28.0322 20.6504V20.4844C28.0322 20.4714 28.0322 20.4583 28.0322 20.4453C28.0322 20.1068 27.9915 19.7617 27.9102 19.4102C27.7572 18.7298 27.474 18.2578 27.0605 17.9941C26.8197 17.8444 26.5723 17.7695 26.3184 17.7695H26.1621C25.9408 17.7695 25.7145 17.8346 25.4834 17.9648C25.0602 18.2025 24.7559 18.6289 24.5703 19.2441C24.4596 19.612 24.4043 20.0319 24.4043 20.5039ZM29.2188 20.333V20.6699C29.2188 21.1257 29.1455 21.5846 28.999 22.0469C28.7223 22.9225 28.2113 23.5247 27.4658 23.8535C27.0654 24.0326 26.6585 24.1221 26.2451 24.1221H26.1377C25.2946 24.1221 24.6061 23.8047 24.0723 23.1699C23.8509 22.903 23.6719 22.5579 23.5352 22.1348C23.4017 21.7116 23.335 21.277 23.335 20.8311V20.6064C23.335 20.1312 23.4033 19.6592 23.54 19.1904C23.6735 18.7184 23.8835 18.3197 24.1699 17.9941C24.7103 17.3757 25.402 17.0664 26.2451 17.0664H26.4648C26.8001 17.0664 27.1501 17.1445 27.5146 17.3008C28.2471 17.61 28.75 18.2008 29.0234 19.0732C29.1536 19.4834 29.2188 19.9033 29.2188 20.333ZM35.0879 17.7988C35.0879 17.4993 35.2816 17.3496 35.6689 17.3496C35.848 17.3496 35.9945 17.4082 36.1084 17.5254C36.2223 17.6426 36.2793 17.7777 36.2793 17.9307C36.2793 18.0837 36.2402 18.2708 36.1621 18.4922C36.084 18.7103 36.0319 18.9495 36.0059 19.21C35.9798 19.4704 35.9668 19.9326 35.9668 20.5967L35.9619 20.8018C35.9587 20.9385 35.957 21.3096 35.957 21.915C35.957 22.5173 35.9326 23.0169 35.8838 23.4141C35.8545 23.6647 35.7243 23.79 35.4932 23.79C35.262 23.79 34.9805 23.5817 34.6484 23.165C34.5475 23.0381 34.0788 22.3268 33.2422 21.0312C32.4089 19.7357 31.9141 19.0879 31.7578 19.0879C31.6536 19.0879 31.6016 20.04 31.6016 21.9443C31.6016 22.1527 31.6146 22.4017 31.6406 22.6914C31.6699 22.9779 31.6846 23.1309 31.6846 23.1504C31.6846 23.349 31.6081 23.5166 31.4551 23.6533C31.3021 23.7868 31.1198 23.8535 30.9082 23.8535C30.6217 23.8535 30.4785 23.7526 30.4785 23.5508C30.4785 23.4271 30.5192 23.2643 30.6006 23.0625C30.7308 22.737 30.7959 21.9476 30.7959 20.6943L30.8008 20.4844L30.8154 20.0596C30.8219 19.7764 30.8252 19.4281 30.8252 19.0146C30.8252 18.6012 30.7878 18.2611 30.7129 17.9941C30.638 17.724 30.6006 17.5872 30.6006 17.584C30.6006 17.4277 30.7178 17.3496 30.9521 17.3496C31.4176 17.3496 31.8587 17.5954 32.2754 18.0869C32.6921 18.5785 33.234 19.3304 33.9014 20.3428C34.5719 21.3519 34.9398 21.8564 35.0049 21.8564C35.1253 21.8564 35.1855 20.9417 35.1855 19.1123C35.1855 18.624 35.1693 18.2855 35.1367 18.0967C35.1042 17.9046 35.0879 17.8053 35.0879 17.7988Z" fill="white"/>
<defs>
<linearGradient id="paint0_linear_348_30" x1="40" y1="40" x2="0" y2="0" gradientUnits="userSpaceOnUse">
<stop stop-color="#2E91A7"/>
<stop offset="1" stop-color="#B4F8C6"/>
</linearGradient>
</defs>
</svg>
