<svg width="16" height="16" viewBox="0 0 16 16" fill="none" xmlns="http://www.w3.org/2000/svg">
<g clip-path="url(#clip0_316_55)">
<path d="M12 0H4C1.79086 0 0 1.79086 0 4V12C0 14.2091 1.79086 16 4 16H12C14.2091 16 16 14.2091 16 12V4C16 1.79086 14.2091 0 12 0Z" fill="url(#paint0_linear_316_55)"/>
<path d="M3.22266 6.81055L3.17773 6.50195C3.17773 6.42643 3.21159 6.36979 3.2793 6.33203C3.34831 6.29427 3.42969 6.27539 3.52344 6.27539C3.61849 6.27539 3.68555 6.29167 3.72461 6.32422C3.76497 6.35677 3.78516 6.38932 3.78516 6.42188V6.48633L3.76953 6.54688L3.74414 6.60352L3.7207 6.66406C3.69857 6.73698 3.6875 6.97005 3.6875 7.36328L3.68359 7.6875C3.68359 7.72396 3.68229 7.77799 3.67969 7.84961L3.67383 8.01367C3.66992 8.17773 3.66797 8.29557 3.66797 8.36719C3.66797 8.4375 3.67253 8.49284 3.68164 8.5332C3.69206 8.57227 3.70898 8.62044 3.73242 8.67773C3.75716 8.73503 3.76953 8.77669 3.76953 8.80273C3.76953 8.87305 3.74674 8.92057 3.70117 8.94531C3.6569 8.97005 3.58789 8.98242 3.49414 8.98242C3.40169 8.98242 3.32617 8.96094 3.26758 8.91797C3.20898 8.8737 3.17969 8.83073 3.17969 8.78906C3.17969 8.7474 3.1849 8.69987 3.19531 8.64648C3.20703 8.5918 3.21615 8.53971 3.22266 8.49023C3.23047 8.44076 3.23438 8.32227 3.23438 8.13477C3.23438 7.94727 3.19922 7.83073 3.12891 7.78516C3.07943 7.7526 2.96354 7.73633 2.78125 7.73633C2.42318 7.73633 2.21289 7.77148 2.15039 7.8418C2.10091 7.89779 2.07617 8.06185 2.07617 8.33398C2.07617 8.43555 2.07878 8.50781 2.08398 8.55078L2.09375 8.61328L2.10547 8.66992C2.11328 8.71419 2.11719 8.75651 2.11719 8.79688C2.11719 8.83594 2.0918 8.87305 2.04102 8.9082C1.99023 8.94336 1.91471 8.96094 1.81445 8.96094C1.62565 8.96094 1.53125 8.90299 1.53125 8.78711C1.53125 8.78451 1.55534 8.70378 1.60352 8.54492C1.63086 8.45378 1.64453 8.14453 1.64453 7.61719L1.64648 7.53711C1.64779 7.46289 1.64909 7.4043 1.65039 7.36133C1.65169 7.31836 1.65234 7.22135 1.65234 7.07031C1.65234 6.91797 1.64714 6.81706 1.63672 6.76758C1.6276 6.7181 1.60872 6.66276 1.58008 6.60156C1.55273 6.54036 1.53906 6.49219 1.53906 6.45703C1.53906 6.34635 1.62956 6.29102 1.81055 6.29102C1.9043 6.29102 1.97852 6.30924 2.0332 6.3457C2.08919 6.38086 2.11719 6.42318 2.11719 6.47266C2.11719 6.48438 2.11068 6.52995 2.09766 6.60938C2.08464 6.6888 2.07812 6.78711 2.07812 6.9043C2.07812 7.14779 2.11198 7.29492 2.17969 7.3457C2.2487 7.39518 2.46549 7.41992 2.83008 7.41992C3.02148 7.41992 3.13477 7.38411 3.16992 7.3125C3.20508 7.23958 3.22266 7.07227 3.22266 6.81055ZM4.57617 6.25586H4.64062C4.69661 6.25586 4.74479 6.27279 4.78516 6.30664C4.82552 6.34049 4.8457 6.38997 4.8457 6.45508V6.50391C4.8457 6.55729 4.82812 6.60547 4.79297 6.64844C4.75781 6.6901 4.71289 6.71094 4.6582 6.71094L4.61914 6.7168H4.55469C4.53906 6.71289 4.51953 6.71094 4.49609 6.71094C4.47266 6.71094 4.44466 6.69531 4.41211 6.66406C4.38086 6.63151 4.36523 6.5957 4.36523 6.55664C4.36263 6.54622 4.36133 6.53841 4.36133 6.5332L4.35742 6.49414V6.48438L4.36523 6.42188C4.36523 6.39193 4.38216 6.35677 4.41602 6.31641C4.44987 6.27604 4.50326 6.25586 4.57617 6.25586ZM4.60742 8.99414H4.50781C4.45312 8.99414 4.40625 8.97852 4.36719 8.94727C4.32812 8.91602 4.30859 8.88216 4.30859 8.8457C4.30859 8.80794 4.31966 8.75391 4.3418 8.68359C4.36393 8.61328 4.375 8.55078 4.375 8.49609L4.37891 8.44727L4.38281 8.3457V8.26562L4.38477 8.21289V7.57812C4.37956 7.50781 4.36849 7.44857 4.35156 7.40039L4.33398 7.36328C4.30664 7.29557 4.29297 7.25846 4.29297 7.25195V7.21289C4.29297 7.13737 4.37109 7.09961 4.52734 7.09961H4.59766C4.69271 7.09961 4.75065 7.13672 4.77148 7.21094C4.77669 7.23047 4.7793 7.3444 4.7793 7.55273V7.99609L4.7832 8.125L4.79102 8.27539C4.79102 8.43034 4.82292 8.56185 4.88672 8.66992C4.91276 8.71419 4.92578 8.76367 4.92578 8.81836C4.92578 8.87174 4.89518 8.91471 4.83398 8.94727C4.77279 8.97852 4.69727 8.99414 4.60742 8.99414ZM5.70508 9.22852H5.66211C5.54622 9.22852 5.44466 9.20573 5.35742 9.16016C5.27018 9.11589 5.22656 9.06055 5.22656 8.99414V8.95703C5.22656 8.91667 5.24414 8.87891 5.2793 8.84375C5.31576 8.80729 5.36979 8.78906 5.44141 8.78906L5.62695 8.80273C5.70378 8.80273 5.77344 8.76888 5.83594 8.70117C5.89844 8.63216 5.94792 8.54622 5.98438 8.44336C6.05208 8.25065 6.08594 7.94727 6.08594 7.5332L6.08398 7.48633C6.08268 7.45508 6.08203 7.375 6.08203 7.24609C6.08203 7.11589 6.06966 7.00065 6.04492 6.90039C6.02018 6.79883 5.98568 6.70898 5.94141 6.63086C5.89714 6.55273 5.875 6.49023 5.875 6.44336C5.875 6.39648 5.90951 6.35221 5.97852 6.31055C6.04883 6.26888 6.14909 6.24805 6.2793 6.24805H6.32227C6.39909 6.24805 6.46615 6.26888 6.52344 6.31055C6.58203 6.35091 6.61133 6.40495 6.61133 6.47266C6.61133 6.4974 6.60547 6.53776 6.59375 6.59375C6.58333 6.64974 6.57096 6.7526 6.55664 6.90234C6.54362 7.05078 6.53711 7.19076 6.53711 7.32227L6.5332 7.41602C6.5319 7.44727 6.53125 7.47852 6.53125 7.50977L6.52734 7.60352L6.52148 7.88867C6.52148 8.3457 6.45833 8.67318 6.33203 8.87109C6.26172 8.98047 6.16992 9.06706 6.05664 9.13086C5.94336 9.19596 5.82617 9.22852 5.70508 9.22852ZM8.01172 9.02148C7.89193 9.02148 7.75977 9.00651 7.61523 8.97656C7.4707 8.94531 7.36914 8.91276 7.31055 8.87891C7.25195 8.84375 7.20573 8.79492 7.17188 8.73242C7.13932 8.66862 7.12305 8.60807 7.12305 8.55078C7.12305 8.49219 7.13672 8.44727 7.16406 8.41602C7.19141 8.38346 7.22135 8.36719 7.25391 8.36719C7.28646 8.36719 7.34701 8.4043 7.43555 8.47852C7.52539 8.55273 7.61458 8.60872 7.70312 8.64648C7.79297 8.68424 7.9043 8.70312 8.03711 8.70312C8.16992 8.70312 8.27799 8.66797 8.36133 8.59766C8.44466 8.52734 8.48633 8.42773 8.48633 8.29883C8.48633 8.16992 8.41081 8.05339 8.25977 7.94922C8.2181 7.92057 8.08008 7.85091 7.8457 7.74023C7.61133 7.62826 7.45638 7.5332 7.38086 7.45508C7.30534 7.37565 7.25065 7.29557 7.2168 7.21484C7.18424 7.13281 7.16797 7.03516 7.16797 6.92188C7.16797 6.71615 7.25456 6.54557 7.42773 6.41016C7.58268 6.28646 7.8151 6.22461 8.125 6.22461C8.3151 6.22461 8.47461 6.2526 8.60352 6.30859C8.66211 6.33464 8.71094 6.37891 8.75 6.44141C8.79036 6.5026 8.81055 6.5599 8.81055 6.61328C8.81055 6.73828 8.76953 6.80078 8.6875 6.80078C8.66406 6.80078 8.58398 6.75586 8.44727 6.66602C8.31055 6.57617 8.17318 6.53125 8.03516 6.53125C7.89844 6.53125 7.78776 6.5638 7.70312 6.62891C7.61979 6.69271 7.57812 6.78125 7.57812 6.89453C7.57812 7.00781 7.63346 7.10872 7.74414 7.19727C7.80404 7.24544 7.95573 7.32487 8.19922 7.43555C8.44271 7.54492 8.60872 7.64453 8.69727 7.73438C8.78711 7.82292 8.84635 7.9082 8.875 7.99023C8.90495 8.07096 8.91992 8.16471 8.91992 8.27148C8.91992 8.37826 8.89714 8.47852 8.85156 8.57227C8.76042 8.76367 8.59831 8.89583 8.36523 8.96875C8.25456 9.00391 8.14128 9.02148 8.02539 9.02148C8.02018 9.02148 8.01562 9.02148 8.01172 9.02148ZM9.76172 7.60156V7.70117C9.76172 7.99284 9.81706 8.23112 9.92773 8.41602C9.99284 8.52539 10.0736 8.60938 10.1699 8.66797C10.2676 8.72526 10.3574 8.75391 10.4395 8.75391H10.5312C10.6315 8.75391 10.7246 8.72656 10.8105 8.67188C10.9733 8.56901 11.0859 8.39909 11.1484 8.16211C11.1914 8.00065 11.2129 7.83333 11.2129 7.66016V7.59375C11.2129 7.58854 11.2129 7.58333 11.2129 7.57812C11.2129 7.44271 11.1966 7.30469 11.1641 7.16406C11.1029 6.89193 10.9896 6.70312 10.8242 6.59766C10.7279 6.53776 10.6289 6.50781 10.5273 6.50781H10.4648C10.3763 6.50781 10.2858 6.53385 10.1934 6.58594C10.0241 6.68099 9.90234 6.85156 9.82812 7.09766C9.78385 7.24479 9.76172 7.41276 9.76172 7.60156ZM11.6875 7.5332V7.66797C11.6875 7.85026 11.6582 8.03385 11.5996 8.21875C11.4889 8.56901 11.2845 8.8099 10.9863 8.94141C10.8262 9.01302 10.6634 9.04883 10.498 9.04883H10.4551C10.1178 9.04883 9.84245 8.92188 9.62891 8.66797C9.54036 8.5612 9.46875 8.42318 9.41406 8.25391C9.36068 8.08464 9.33398 7.91081 9.33398 7.73242V7.64258C9.33398 7.45247 9.36133 7.26367 9.41602 7.07617C9.4694 6.88737 9.55339 6.72786 9.66797 6.59766C9.88411 6.35026 10.1608 6.22656 10.498 6.22656H10.5859C10.7201 6.22656 10.86 6.25781 11.0059 6.32031C11.2988 6.44401 11.5 6.68034 11.6094 7.0293C11.6615 7.19336 11.6875 7.36133 11.6875 7.5332ZM14.0352 6.51953C14.0352 6.39974 14.1126 6.33984 14.2676 6.33984C14.3392 6.33984 14.3978 6.36328 14.4434 6.41016C14.4889 6.45703 14.5117 6.51107 14.5117 6.57227C14.5117 6.63346 14.4961 6.70833 14.4648 6.79688C14.4336 6.88411 14.4128 6.97982 14.4023 7.08398C14.3919 7.18815 14.3867 7.37305 14.3867 7.63867L14.3848 7.7207C14.3835 7.77539 14.3828 7.92383 14.3828 8.16602C14.3828 8.4069 14.373 8.60677 14.3535 8.76562C14.3418 8.86589 14.2897 8.91602 14.1973 8.91602C14.1048 8.91602 13.9922 8.83268 13.8594 8.66602C13.819 8.61523 13.6315 8.33073 13.2969 7.8125C12.9635 7.29427 12.7656 7.03516 12.7031 7.03516C12.6615 7.03516 12.6406 7.41602 12.6406 8.17773C12.6406 8.26107 12.6458 8.36068 12.6562 8.47656C12.668 8.59115 12.6738 8.65234 12.6738 8.66016C12.6738 8.73958 12.6432 8.80664 12.582 8.86133C12.5208 8.91471 12.4479 8.94141 12.3633 8.94141C12.2487 8.94141 12.1914 8.90104 12.1914 8.82031C12.1914 8.77083 12.2077 8.70573 12.2402 8.625C12.2923 8.49479 12.3184 8.17904 12.3184 7.67773L12.3203 7.59375L12.3262 7.42383C12.3288 7.31055 12.3301 7.17122 12.3301 7.00586C12.3301 6.84049 12.3151 6.70443 12.2852 6.59766C12.2552 6.48958 12.2402 6.4349 12.2402 6.43359C12.2402 6.37109 12.2871 6.33984 12.3809 6.33984C12.5671 6.33984 12.7435 6.43815 12.9102 6.63477C13.0768 6.83138 13.2936 7.13216 13.5605 7.53711C13.8288 7.94076 13.9759 8.14258 14.002 8.14258C14.0501 8.14258 14.0742 7.77669 14.0742 7.04492C14.0742 6.84961 14.0677 6.71419 14.0547 6.63867C14.0417 6.56185 14.0352 6.52214 14.0352 6.51953Z" fill="white"/>
</g>
<defs>
<linearGradient id="paint0_linear_316_55" x1="16" y1="16" x2="0" y2="0" gradientUnits="userSpaceOnUse">
<stop stop-color="#2E91A7"/>
<stop offset="1" stop-color="#B4F8C6"/>
</linearGradient>
<clipPath id="clip0_316_55">
<rect width="16" height="16" fill="white"/>
</clipPath>
</defs>
</svg>
